<svg width="2375" height="765" viewBox="0 0 2375 765" fill="none" xmlns="http://www.w3.org/2000/svg">
<path d="M117.983 89.4183C136.532 89.4183 150.319 75.6314 150.319 57.065C150.319 38.5342 136.532 24.73 117.983 24.73C99.4348 24.73 85.6303 38.5342 85.6303 57.065C85.6303 75.6314 99.4348 89.4183 117.983 89.4183ZM24.7588 368.129H221.659V335.294H141.758V136.021H24.7588V168.838H104.661V335.294H24.7588V368.129Z" fill="#F9F6F2" stroke="#F9F6F2" stroke-width="22.1692" stroke-miterlimit="2"/>
<path d="M291.092 368.128H328.189V234.007C328.189 193.575 354.835 164.557 393.359 164.557C424.267 164.557 440.444 183.106 440.444 220.203V368.128H477.541V218.776C477.541 161.239 451.377 130.313 402.384 130.313C367.195 130.313 341.512 146.008 328.189 175.508H326.298L323.909 136.021H291.092V368.128Z" fill="#F9F6F2" stroke="#F9F6F2" stroke-width="22.1692" stroke-miterlimit="2"/>
<path d="M673.478 373.836C724.844 373.836 753.38 345.3 753.38 294.398V272.532H717.246V289.654C717.246 322.934 702.978 339.592 673.96 339.592C645.423 339.592 631.155 322.934 631.155 289.654V168.838H736.258V136.021H631.155V54.229H601.674L595.966 136.021H534.613V168.838H594.058V294.398C594.058 345.3 622.595 373.836 673.478 373.836Z" fill="#F9F6F2" stroke="#F9F6F2" stroke-width="22.1692" stroke-miterlimit="2"/>
<path d="M833.282 368.128H870.379V234.007C870.379 193.575 896.544 164.557 933.159 164.557C963.604 164.557 980.244 185.014 980.244 223.538V249.684H1017.34V218.776C1017.34 161.239 991.195 130.313 943.147 130.313C908.903 130.313 883.702 146.49 870.379 175.508H868.489L866.099 136.021H833.282V368.128Z" fill="#F9F6F2" stroke="#F9F6F2" stroke-width="22.1692" stroke-miterlimit="2"/>
<path d="M1183.33 89.4183C1201.88 89.4183 1215.67 75.6314 1215.67 57.065C1215.67 38.5342 1201.88 24.73 1183.33 24.73C1164.79 24.73 1151 38.5342 1151 57.065C1151 75.6314 1164.79 89.4183 1183.33 89.4183ZM1090.11 368.129H1287.01V335.294H1207.11V136.021H1090.11V168.838H1170.01V335.294H1090.11V368.129Z" fill="#F9F6F2" stroke="#F9F6F2" stroke-width="22.1692" stroke-miterlimit="2"/>
<path d="M1356.46 368.128H1393.56V234.007C1393.56 193.575 1420.19 164.557 1458.71 164.557C1489.62 164.557 1505.79 183.106 1505.79 220.203V368.128H1542.89V218.776C1542.89 161.239 1516.73 130.313 1467.75 130.313C1432.54 130.313 1406.86 146.008 1393.56 175.508H1391.65L1389.28 136.021H1356.46V368.128Z" fill="#F9F6F2" stroke="#F9F6F2" stroke-width="22.1692" stroke-miterlimit="2"/>
<path d="M1714.11 373.835C1774.52 373.835 1809.71 348.616 1809.71 300.586C1809.71 263.007 1787.82 242.55 1740.27 235.898L1706.49 231.154C1675.1 226.873 1662.74 217.349 1662.74 198.8C1662.74 177.398 1682.24 164.557 1713.63 164.557C1744.55 164.557 1762.14 177.398 1763.57 193.575H1802.09C1799.24 153.142 1766.42 130.313 1713.16 130.313C1657.98 130.313 1624.7 155.051 1624.7 201.191C1624.7 238.751 1646.57 259.208 1694.13 265.861L1727.9 270.623C1759.29 274.903 1771.66 284.41 1771.66 302.958C1771.66 327.214 1750.26 339.591 1714.11 339.591C1679.38 339.591 1658.95 328.641 1655.61 307.72H1617.57C1620.42 349.562 1655.61 373.835 1714.11 373.835Z" fill="#F9F6F2" stroke="#F9F6F2" stroke-width="22.1692" stroke-miterlimit="2"/>
<path d="M1982.35 89.4183C2000.9 89.4183 2014.69 75.6314 2014.69 57.065C2014.69 38.5342 2000.9 24.73 1982.35 24.73C1963.8 24.73 1950.01 38.5342 1950.01 57.065C1950.01 75.6314 1963.8 89.4183 1982.35 89.4183ZM1889.12 368.129H2086.03V335.294H2006.12V136.021H1889.12V168.838H1969.03V335.294H1889.12V368.129Z" fill="#F9F6F2" stroke="#F9F6F2" stroke-width="22.1692" stroke-miterlimit="2"/>
<path d="M2252.96 373.835C2305.29 373.835 2338.57 346.244 2349.52 295.824H2309.57C2301.01 324.361 2281.98 339.591 2252.96 339.591C2212.07 339.591 2190.67 309.629 2190.67 252.074C2190.67 194.52 2212.07 164.557 2252.96 164.557C2281.98 164.557 2301.01 179.788 2309.57 207.843H2349.04C2338.11 157.423 2305.29 130.313 2252.96 130.313C2187.33 130.313 2152.14 173.118 2152.14 252.074C2152.14 331.031 2187.33 373.835 2252.96 373.835Z" fill="#F9F6F2" stroke="#F9F6F2" stroke-width="22.1692" stroke-miterlimit="2"/>
<path d="M19.5903 761.316V577.899H56.7903V730.057H149.79V761.316H19.5903Z" fill="#F9F6F2"/>
<path d="M500.568 761.316H460.01L443.993 719.207H369.852L354.61 761.316H315.085L387.16 576.349H426.685L500.568 761.316ZM431.852 688.207L406.535 619.491L381.477 688.207H431.852Z" fill="#F9F6F2"/>
<path d="M678.085 576.349H751.968C766.693 576.349 777.543 577.124 784.777 578.157C792.01 579.449 798.468 582.032 804.152 585.907C809.835 589.782 814.485 594.949 818.36 601.407C821.977 607.866 824.043 614.841 824.043 622.849C824.043 631.632 821.718 639.641 817.068 646.874C812.418 654.107 805.96 659.532 797.952 663.149C809.318 666.249 817.843 671.932 824.043 679.941C829.985 687.691 833.085 696.991 833.085 707.582C833.085 716.107 831.018 724.374 827.143 732.124C823.268 740.132 817.843 746.591 811.127 751.241C804.41 756.149 796.143 758.991 786.068 760.024C779.868 760.799 764.885 761.057 741.118 761.316H678.085V576.349ZM715.543 607.091V649.974H740.085C754.552 649.974 763.593 649.716 766.952 649.199C773.41 648.424 778.577 646.357 782.193 642.741C785.81 639.124 787.618 634.216 787.618 628.274C787.618 622.591 786.068 617.941 782.968 614.324C779.868 610.707 774.96 608.641 768.76 607.866C765.143 607.349 754.552 607.091 736.985 607.091H715.543ZM715.543 680.716V730.057H750.16C763.593 730.057 772.118 729.799 775.735 729.024C781.16 727.991 785.81 725.666 789.168 721.532C792.785 717.657 794.335 712.491 794.335 706.032C794.335 700.349 793.043 695.699 790.46 691.824C787.618 687.949 783.743 685.107 778.835 683.299C773.668 681.491 762.56 680.716 745.51 680.716H715.543Z" fill="#F9F6F2"/>
<path d="M1012.67 701.123L1049.09 697.507C1051.16 709.907 1055.55 718.69 1062.27 724.373C1068.99 730.315 1078.03 733.157 1089.39 733.157C1101.54 733.157 1110.58 730.573 1116.52 725.407C1122.72 720.24 1125.82 714.298 1125.82 707.582C1125.82 703.19 1124.53 699.573 1121.94 696.473C1119.36 693.373 1114.71 690.79 1108.51 688.465C1104.12 686.915 1094.04 684.073 1078.54 680.457C1058.65 675.29 1044.44 669.348 1036.44 662.115C1025.07 651.782 1019.39 639.382 1019.39 624.915C1019.39 615.357 1021.97 606.574 1027.39 598.307C1032.82 590.299 1040.31 583.84 1050.39 579.707C1060.46 575.315 1072.6 573.249 1086.81 573.249C1110.06 573.249 1127.63 578.415 1139.25 588.49C1151.14 598.565 1157.08 612.257 1157.85 629.307L1120.39 630.857C1118.84 621.299 1115.49 614.582 1110.06 610.449C1104.89 606.315 1096.89 604.249 1086.55 604.249C1075.7 604.249 1067.18 606.315 1060.98 610.707C1057.1 613.807 1055.04 617.424 1055.04 622.332C1055.04 626.724 1056.84 630.34 1060.72 633.44C1065.37 637.574 1076.74 641.707 1094.82 645.84C1113.16 650.232 1126.59 654.623 1135.12 659.273C1143.9 663.665 1150.88 670.123 1155.79 677.873C1160.69 685.882 1163.02 695.698 1163.02 707.582C1163.02 718.173 1160.18 727.99 1154.24 737.29C1148.29 746.59 1140.03 753.307 1129.18 757.957C1118.59 762.348 1105.15 764.673 1089.14 764.673C1065.63 764.673 1047.8 759.248 1035.14 748.398C1022.74 737.548 1015.25 721.79 1012.67 701.123Z" fill="#F9F6F2"/>
<path d="M1579.91 761.316V577.899H1617.11V730.057H1710.11V761.316H1579.91Z" fill="#F9F6F2"/>
<path d="M1892.73 761.316V577.899H1929.93V730.057H2022.93V761.316H1892.73Z" fill="#F9F6F2"/>
<path d="M2322.81 693.373L2358.97 704.74C2353.29 724.89 2344.25 739.873 2331.33 749.69C2318.42 759.507 2301.88 764.415 2282.25 764.415C2257.45 764.415 2237.3 756.148 2221.54 739.357C2205.78 722.565 2197.77 699.573 2197.77 670.382C2197.77 639.64 2205.78 615.874 2221.8 598.824C2237.56 581.774 2258.48 573.249 2284.32 573.249C2307.05 573.249 2325.39 579.965 2339.6 593.399C2347.87 601.149 2354.32 612.515 2358.46 627.24L2321.52 636.282C2319.19 626.724 2314.8 618.974 2307.82 613.549C2300.85 607.865 2292.32 605.282 2282.51 605.282C2268.82 605.282 2257.71 610.19 2249.18 620.007C2240.66 629.824 2236.27 645.582 2236.27 667.798C2236.27 691.048 2240.66 707.84 2248.92 717.657C2257.45 727.473 2268.3 732.64 2281.73 732.64C2291.55 732.64 2300.33 729.282 2307.31 723.082C2314.54 716.882 2319.71 706.807 2322.81 693.373Z" fill="#F9F6F2"/>
<path fill-rule="evenodd" clip-rule="evenodd" d="M2362.14 477.458V484.584C2362.14 491.427 2356.58 496.977 2349.75 496.977H24.5419C17.7076 496.977 12.1523 491.427 12.1523 484.584V477.458C12.1523 470.615 17.7076 465.066 24.5419 465.066H2349.75C2356.58 465.066 2362.14 470.615 2362.14 477.458Z" fill="#6C5CE7"/>
</svg>
