<svg width="2029" height="2562" viewBox="0 0 2029 2562" fill="none" xmlns="http://www.w3.org/2000/svg">
<g clip-path="url(#clip0_62_359)">
<path fill-rule="evenodd" clip-rule="evenodd" d="M961.917 2441.28V2495.61C961.917 2532.25 932.171 2562 895.531 2562H203.489C166.843 2562 137.092 2532.25 137.092 2495.61V2441.28H961.917Z" fill="#6C5CE7"/>
<path d="M961.918 2467.12H137.089V2489.21H961.918V2467.12Z" fill="#F9F6F2"/>
<path fill-rule="evenodd" clip-rule="evenodd" d="M846.77 10.2962V234.18C846.77 235.096 846.032 235.826 845.122 235.826H827.816C826.906 235.826 826.168 235.096 826.168 234.18V10.2962C826.168 4.61256 830.784 -0.00390625 836.469 -0.00390625C842.154 -0.00390625 846.77 4.61256 846.77 10.2962Z" fill="#21201F"/>
<path fill-rule="evenodd" clip-rule="evenodd" d="M873.258 217.643V379.515C873.258 382.768 870.621 385.402 867.372 385.402H805.566C802.317 385.402 799.68 382.768 799.68 379.515V217.643C799.68 197.338 816.164 180.854 836.469 180.854C856.774 180.854 873.258 197.338 873.258 217.643Z" fill="#21201F"/>
<path fill-rule="evenodd" clip-rule="evenodd" d="M982.175 594.653V1102.43H115.871V615.701C115.871 370.826 314.678 172.022 559.555 172.022C792.801 172.022 982.175 361.386 982.175 594.653Z" fill="#21201F"/>
<path fill-rule="evenodd" clip-rule="evenodd" d="M174.185 772.801C165.42 700.989 140.378 601.996 347.146 597.596C553.911 593.211 761.657 592.137 761.657 592.137C761.657 592.137 947.222 603.497 913.111 773.066C879 942.635 870.936 949.316 595.349 953.672C319.755 958.013 200.383 987.43 174.185 772.801Z" fill="#6C5CE7"/>
<path fill-rule="evenodd" clip-rule="evenodd" d="M199.126 773.094C190.997 711.914 167.771 627.578 359.543 623.829C551.314 620.093 743.994 619.178 743.994 619.178C743.994 619.178 916.102 628.856 884.465 773.32C852.828 917.783 845.348 923.475 589.747 927.186C334.139 930.884 223.424 955.945 199.126 773.094ZM208.243 771.878C215.178 824.069 229.065 858.634 252.3 881.1C275.402 903.453 307.504 913.545 349.8 918.059C409.145 924.39 487.841 919.463 589.613 917.984C680.815 916.667 740.146 915.175 780.19 907.014C804.949 901.974 821.873 894.489 834.197 882.278C855.612 861.078 863.351 826.727 875.484 771.351C882.499 739.282 878.924 714.371 869.042 695.051C854.152 665.966 825.381 649.768 799.448 640.491C771.51 630.486 746.533 628.555 743.721 628.367C735.041 628.418 546.95 629.37 359.722 633.031C268.977 634.799 228.531 653.943 212.302 681.587C204.607 694.688 202.698 709.431 202.988 724.3C203.306 740.523 206.253 756.909 208.243 771.878Z" fill="#F9F6F2"/>
<path fill-rule="evenodd" clip-rule="evenodd" d="M748.346 741.566V744.009C748.346 760.99 734.56 774.779 717.582 774.779H376.415C354.855 774.779 337.35 757.282 337.35 735.709C337.35 727.218 344.243 720.331 352.732 720.331H727.111C738.832 720.331 748.346 729.852 748.346 741.566Z" fill="#F9F6F2"/>
<path d="M982.174 1052.16H115.867V1074.23H982.174V1052.16Z" fill="#F9F6F2"/>
<path fill-rule="evenodd" clip-rule="evenodd" d="M160.422 1247.55V2139.83C160.422 2164.76 140.173 2185.02 115.235 2185.02H45.1806C20.2419 2185.02 -0.00683594 2164.76 -0.00683594 2139.83V1247.55C-0.00683594 1222.61 20.2419 1202.36 45.1806 1202.36H115.235C140.173 1202.36 160.422 1222.61 160.422 1247.55Z" fill="#6C5CE7"/>
<path d="M69.1055 1202.36L69.1055 2185.02H91.1783L91.1783 1202.36H69.1055Z" fill="#21201F"/>
<path fill-rule="evenodd" clip-rule="evenodd" d="M934.81 1181.3V2073.58C934.81 2098.52 955.059 2118.77 979.998 2118.77H1050.05C1074.99 2118.77 1095.24 2098.52 1095.24 2073.58V1181.3C1095.24 1156.37 1074.99 1136.11 1050.05 1136.11H979.998C955.059 1136.11 934.81 1156.37 934.81 1181.3Z" fill="#6C5CE7"/>
<path d="M1029.07 1136.11V2118.77H1007V1136.11H1029.07Z" fill="#21201F"/>
<path fill-rule="evenodd" clip-rule="evenodd" d="M1015.03 1104.16V2429.73C1015.03 2450.31 998.315 2467.01 977.75 2467.01H120.313C99.7339 2467.01 83.0303 2450.31 83.0303 2429.73V1104.16C83.0303 1083.59 99.7339 1066.88 120.313 1066.88H977.75C998.315 1066.88 1015.03 1083.59 1015.03 1104.16Z" fill="#21201F"/>
<path fill-rule="evenodd" clip-rule="evenodd" d="M858.851 1279.57C858.851 1316.52 828.846 1346.54 791.895 1346.54H568.277C562.364 1346.54 557.563 1341.72 557.563 1335.81V1223.33C557.563 1217.42 562.364 1212.63 568.277 1212.63H791.895C828.846 1212.63 858.851 1242.62 858.851 1279.57Z" fill="#F9F6F2"/>
<path fill-rule="evenodd" clip-rule="evenodd" d="M845.108 1444.42C845.108 1467.5 826.379 1486.25 803.29 1486.25H566.5C562.807 1486.25 559.81 1483.24 559.81 1479.55V1409.3C559.81 1405.61 562.807 1402.61 566.5 1402.61H803.29C826.379 1402.61 845.108 1421.35 845.108 1444.42Z" fill="#6C5CE7"/>
<path fill-rule="evenodd" clip-rule="evenodd" d="M508.628 1228.27V1333.89C508.628 1339.44 504.12 1343.95 498.568 1343.95H302.07C267.368 1343.95 239.196 1315.78 239.196 1281.07C239.196 1246.38 267.368 1218.21 302.07 1218.21H498.568C504.12 1218.21 508.628 1222.7 508.628 1228.27Z" fill="#F9F6F2"/>
<path fill-rule="evenodd" clip-rule="evenodd" d="M510.873 1409.29V1480.96C510.873 1484.73 507.814 1487.79 504.047 1487.79H312.68C289.133 1487.79 270.017 1468.67 270.017 1445.12C270.017 1421.58 289.133 1402.46 312.68 1402.46H504.047C507.814 1402.46 510.873 1405.51 510.873 1409.29Z" fill="#F9F6F2"/>
<path fill-rule="evenodd" clip-rule="evenodd" d="M1425.15 1938.5V2173.18C1425.15 2204.26 1399.93 2229.48 1368.85 2229.48H1336.5C1305.42 2229.48 1280.2 2204.26 1280.2 2173.18V1938.5C1280.2 1907.42 1305.42 1882.19 1336.5 1882.19H1368.85C1399.93 1882.19 1425.15 1907.42 1425.15 1938.5Z" fill="#6C5CE7"/>
<path d="M1363.73 1882.19V2229.48H1341.65V1882.19H1363.73Z" fill="#21201F"/>
<path fill-rule="evenodd" clip-rule="evenodd" d="M2028.5 1938.5V2173.18C2028.5 2204.26 2003.27 2229.48 1972.19 2229.48H1939.85C1908.77 2229.48 1883.55 2204.26 1883.55 2173.18V1938.5C1883.55 1907.42 1908.77 1882.19 1939.85 1882.19H1972.19C2003.27 1882.19 2028.5 1907.42 2028.5 1938.5Z" fill="#6C5CE7"/>
<path d="M1967.07 1882.19V2229.48H1945V1882.19H1967.07Z" fill="#21201F"/>
<path fill-rule="evenodd" clip-rule="evenodd" d="M1435.98 2339.84H1400.95C1374.31 2339.84 1352.68 2318.22 1352.68 2291.58V1445.13C1352.68 1278.63 1518.97 868.273 1654.35 868.273C1789.74 868.273 1956.02 1278.63 1956.02 1445.13V2291.58C1956.02 2318.22 1934.4 2339.84 1907.76 2339.84H1870.43L1885.7 2541.57C1885.7 2551.25 1880.28 2559.11 1873.62 2559.11H1706.47C1699.8 2559.11 1694.39 2551.25 1694.39 2541.57L1707.36 2339.84H1599.05L1614.32 2541.57C1614.32 2551.25 1608.91 2559.11 1602.24 2559.11H1435.09C1428.42 2559.11 1423.01 2551.25 1423.01 2541.57L1435.98 2339.84Z" fill="#21201F"/>
<path fill-rule="evenodd" clip-rule="evenodd" d="M1848.9 2496.25V2504.27C1848.9 2512.01 1842.63 2518.29 1834.89 2518.29H1745.18C1737.44 2518.29 1731.17 2512.01 1731.17 2504.27V2496.25C1731.17 2488.51 1737.44 2482.23 1745.18 2482.23H1834.89C1842.63 2482.23 1848.9 2488.51 1848.9 2496.25Z" fill="#6C5CE7"/>
<path fill-rule="evenodd" clip-rule="evenodd" d="M1582.67 2495.66V2504.84C1582.67 2513.69 1575.51 2520.86 1566.66 2520.86H1470.66C1461.81 2520.86 1454.65 2513.69 1454.65 2504.84V2495.66C1454.65 2486.82 1461.81 2479.65 1470.66 2479.65H1566.66C1575.51 2479.65 1582.67 2486.82 1582.67 2495.66Z" fill="#6C5CE7"/>
<path d="M1533.72 2104.43C1560.56 2104.43 1582.31 2082.67 1582.31 2055.84C1582.31 2029.01 1560.56 2007.26 1533.72 2007.26C1506.89 2007.26 1485.14 2029.01 1485.14 2055.84C1485.14 2082.67 1506.89 2104.43 1533.72 2104.43Z" fill="#6C5CE7"/>
<path d="M1654.35 2104.43C1681.18 2104.43 1702.94 2082.67 1702.94 2055.84C1702.94 2029.01 1681.18 2007.26 1654.35 2007.26C1627.52 2007.26 1605.77 2029.01 1605.77 2055.84C1605.77 2082.67 1627.52 2104.43 1654.35 2104.43Z" fill="#F9F6F2"/>
<path d="M1774.98 2104.43C1801.81 2104.43 1823.57 2082.67 1823.57 2055.84C1823.57 2029.01 1801.81 2007.26 1774.98 2007.26C1748.15 2007.26 1726.4 2029.01 1726.4 2055.84C1726.4 2082.67 1748.15 2104.43 1774.98 2104.43Z" fill="#F9F6F2"/>
<path d="M1800.18 1449.82C1752.79 1369.27 1649.07 1342.4 1568.53 1389.8C1487.99 1437.19 1461.12 1540.91 1508.51 1621.45C1555.91 1701.99 1659.62 1728.86 1740.16 1681.47C1820.71 1634.07 1847.58 1530.36 1800.18 1449.82Z" fill="#F9F6F2"/>
<path fill-rule="evenodd" clip-rule="evenodd" d="M1464.28 1647.49C1402.55 1542.58 1437.6 1407.3 1542.51 1345.56C1647.42 1283.83 1782.7 1318.88 1844.43 1423.79C1906.17 1528.7 1871.12 1663.98 1766.21 1725.71C1661.3 1787.45 1526.02 1752.4 1464.28 1647.49ZM1480.13 1638.16C1536.71 1734.31 1660.73 1766.44 1756.88 1709.86C1853.03 1653.28 1885.16 1529.27 1828.58 1433.11C1772 1336.96 1647.99 1304.83 1551.84 1361.41C1455.68 1417.99 1423.55 1542.01 1480.13 1638.16Z" fill="#F9F6F2"/>
<path d="M1516.16 1388.52C1507.28 1373.43 1487.84 1368.39 1472.75 1377.28C1457.65 1386.16 1452.62 1405.59 1461.5 1420.69C1470.38 1435.78 1489.82 1440.82 1504.91 1431.93C1520 1423.05 1525.04 1403.62 1516.16 1388.52Z" fill="#F9F6F2"/>
</g>
<defs>
<clipPath id="clip0_62_359">
<rect width="2029" height="2562" fill="white"/>
</clipPath>
</defs>
</svg>
